<svg width="100" height="100" viewBox="0 0 100 100" fill="none" xmlns="http://www.w3.org/2000/svg">
<path d="M89.997 50.6835H49.3166V10.0031C49.3166 9.50312 48.9075 9.09405 48.4075 9.09405H45.4531C39.4839 9.08427 33.5718 10.2549 28.0568 12.5385C22.5417 14.8221 17.5327 18.1737 13.3178 22.4004C9.1669 26.5385 5.85953 31.4436 3.57949 36.8431C1.20691 42.4433 -0.010559 48.4649 6.89878e-05 54.547C-0.00970549 60.5161 1.16089 66.4283 3.44452 71.9433C5.72814 77.4583 9.07972 82.4674 13.3064 86.6823C17.4767 90.8526 22.3402 94.1366 27.7491 96.4206C33.3494 98.7932 39.371 100.011 45.4531 100C51.4222 100.01 57.3343 98.8392 62.8493 96.5556C68.3644 94.2719 73.3734 90.9204 77.5883 86.6937C81.7586 82.5233 85.0426 77.6599 87.3266 72.251C89.6992 66.6507 90.9167 60.6291 90.906 54.547V51.5926C90.906 51.0926 90.497 50.6835 89.997 50.6835ZM72.009 81.3416C68.4903 84.8328 64.3174 87.5955 59.7292 89.4713C55.1411 91.3471 50.2279 92.2992 45.2712 92.273C35.2602 92.2276 25.8515 88.3072 18.7722 81.2279C11.6474 74.1032 7.72708 64.6262 7.72708 54.547C7.72708 44.4678 11.6474 34.9909 18.7722 27.8661C24.9765 21.6618 32.9648 17.8778 41.5895 17.0142V58.4105H82.9858C82.1109 67.0807 78.2928 75.1145 72.009 81.3416ZM99.9966 44.3656L99.7012 41.1611C98.7353 30.6956 94.0877 20.8209 86.6107 13.3666C79.1285 5.89866 69.2741 1.27688 58.7481 0.298896L55.5323 0.00345133C54.9982 -0.0420017 54.5436 0.367075 54.5436 0.901148V44.5474C54.5436 45.0474 54.9527 45.4564 55.4527 45.4564L99.0876 45.3428C99.6216 45.3428 100.042 44.8883 99.9966 44.3656ZM62.2479 37.7522V8.59407C69.406 10.0923 75.9749 13.6373 81.1564 18.7983C86.3494 23.9799 89.9061 30.5706 91.3833 37.6726L62.2479 37.7522Z" fill="white"/>
</svg>
