<svg width="100" height="93" viewBox="0 0 100 93" fill="none" xmlns="http://www.w3.org/2000/svg">
<path d="M60.7143 78.5714H75V92.8571H60.7143V78.5714Z" fill="white"/>
<path d="M85.7143 78.5714H100V92.8571H85.7143V78.5714Z" fill="white"/>
<path d="M60.7143 53.5714H75V67.8571H60.7143V53.5714Z" fill="white"/>
<path d="M85.7143 53.5714H100V67.8571H85.7143V53.5714Z" fill="white"/>
<path d="M53.5714 78.5714H7.14286V28.5714H92.8571V46.4286H100V28.5714C99.9981 26.6776 99.245 24.8619 97.9058 23.5228C96.5667 22.1836 94.751 21.4305 92.8571 21.4286H71.4286V7.14286C71.4267 5.24903 70.6735 3.43332 69.3344 2.09418C67.9953 0.755047 66.1795 0.00189099 64.2857 0H35.7143C33.8205 0.00189099 32.0047 0.755047 30.6656 2.09418C29.3265 3.43332 28.5733 5.24903 28.5714 7.14286V21.4286H7.14286C5.24903 21.4305 3.43332 22.1836 2.09418 23.5228C0.755047 24.8619 0.00189099 26.6776 0 28.5714V78.5714C0.00189099 80.4652 0.755047 82.281 2.09418 83.6201C3.43332 84.9592 5.24903 85.7124 7.14286 85.7143H53.5714V78.5714ZM35.7143 7.14286H64.2857V21.4286H35.7143V7.14286Z" fill="white"/>
</svg>
