<svg width="100" height="60" viewBox="0 0 100 60" fill="none" xmlns="http://www.w3.org/2000/svg">
<path d="M50 12.5C41.7156 12.5 35 20.3344 35 30C35 39.6641 41.7156 47.5 50 47.5C58.2812 47.5 65 39.6672 65 30C65 20.3344 58.2844 12.5 50 12.5ZM56.25 38.75C56.25 39.4406 55.6906 40 55 40H45C44.3094 40 43.75 39.4406 43.75 38.75V36.25C43.75 35.5594 44.3094 35 45 35H47.5V26.3375L47.4266 26.3859C47.29 26.477 47.1369 26.5404 46.9759 26.5722C46.8149 26.6041 46.6492 26.6039 46.4882 26.5717C46.3273 26.5395 46.1743 26.4759 46.038 26.3845C45.9016 26.2931 45.7847 26.1757 45.6937 26.0391L44.3063 23.9594C44.2151 23.8229 44.1518 23.6697 44.12 23.5087C44.0881 23.3477 44.0883 23.182 44.1205 23.0211C44.1527 22.8601 44.2163 22.7071 44.3077 22.5708C44.3991 22.4345 44.5165 22.3175 44.6531 22.2266L47.0484 20.6297C47.6643 20.2191 48.3879 20 49.1281 20H51.25C51.9406 20 52.5 20.5594 52.5 21.25V35H55C55.6906 35 56.25 35.5594 56.25 36.25V38.75ZM95 0H5C2.23906 0 0 2.23906 0 5V55C0 57.7609 2.23906 60 5 60H95C97.7609 60 100 57.7609 100 55V5C100 2.23906 97.7609 0 95 0ZM92.5 42.5C86.9766 42.5 82.5 46.9766 82.5 52.5H17.5C17.5 46.9766 13.0234 42.5 7.5 42.5V17.5C13.0234 17.5 17.5 13.0234 17.5 7.5H82.5C82.5 13.0234 86.9766 17.5 92.5 17.5V42.5Z" fill="white"/>
</svg>
