<svg width="56" height="41" viewBox="0 0 56 41" fill="none" xmlns="http://www.w3.org/2000/svg">
<path d="M55.6979 10.1904L55.6281 9.73035L55.5555 9.74678C55.0594 7.47108 53.9167 5.37967 52.2595 3.71454C50.6023 2.04941 48.4984 0.878618 46.1911 0.337628C43.8839 -0.203363 41.4677 -0.0924388 39.2221 0.657565C36.9764 1.40757 34.9931 2.766 33.5017 4.57568C32.0103 6.38536 31.0716 8.57232 30.7944 10.8835C30.5171 13.1947 30.9126 15.5357 31.9351 17.6356C32.9575 19.7355 34.5652 21.5084 36.572 22.7494C38.5788 23.9903 40.9028 24.6484 43.275 24.6477C43.8975 24.6477 44.4949 24.5545 45.0896 24.4696C44.8969 25.105 44.6987 25.7513 44.3805 26.3319C44.0622 27.1754 43.5653 27.9066 43.0712 28.6433C42.658 29.4402 41.9294 29.9798 41.3934 30.6617C40.8323 31.3244 40.0674 31.7653 39.4616 32.3158C38.8669 32.8909 38.0881 33.1785 37.4683 33.5838C36.8207 33.948 36.2567 34.3506 35.6537 34.5423L34.149 35.1503L32.8258 35.6898L34.177 41L35.8436 40.6056C36.3768 40.4742 37.0272 40.3208 37.767 40.1373C38.5236 40.0004 39.3304 39.6252 40.2293 39.2829C41.1142 38.8913 42.1444 38.6311 43.0991 38.0039C44.0594 37.4069 45.1677 36.9085 46.1448 36.1088C47.0912 35.2845 48.233 34.5697 49.076 33.5235C49.9973 32.5431 50.9074 31.5134 51.6137 30.3413C52.4316 29.2239 52.9872 27.997 53.5734 26.7838C54.1038 25.5706 54.5309 24.33 54.8799 23.125C55.5415 20.7095 55.8374 18.4145 55.9519 16.4509C56.0468 14.4846 55.991 12.8496 55.8737 11.6666C55.8345 11.1725 55.7758 10.6801 55.6979 10.1904ZM24.9896 10.1904L24.9198 9.73035L24.8472 9.74678C24.3512 7.47108 23.2084 5.37967 21.5512 3.71454C19.894 2.04941 17.7901 0.878618 15.4829 0.337628C13.1756 -0.203363 10.7594 -0.0924388 8.51379 0.657565C6.26815 1.40757 4.28487 2.766 2.79343 4.57568C1.30199 6.38536 0.363343 8.57232 0.0860979 10.8835C-0.191147 13.1947 0.20434 15.5357 1.2268 17.6356C2.24926 19.7355 3.85691 21.5084 5.86372 22.7494C7.87053 23.9903 10.1945 24.6484 12.5667 24.6477C13.1892 24.6477 13.7867 24.5545 14.3813 24.4696C14.1887 25.105 13.9905 25.7513 13.6722 26.3319C13.354 27.1754 12.857 27.9066 12.3629 28.6433C11.9497 29.4402 11.2211 29.9798 10.6851 30.6617C10.124 31.3244 9.35909 31.7653 8.7533 32.3158C8.15867 32.8909 7.3798 33.1785 6.76005 33.5838C6.11239 33.948 5.54847 34.3506 4.94547 34.5423L3.44077 35.1503C2.60048 35.4871 2.12031 35.6843 2.12031 35.6843L3.47148 40.9945L5.1381 40.6002C5.6713 40.4687 6.32176 40.3153 7.06155 40.1319C7.81809 39.9949 8.62488 39.6197 9.5238 39.2774C10.4088 38.8858 11.4389 38.6256 12.3936 37.9985C13.354 37.4014 14.4622 36.903 15.4393 36.1033C16.3857 35.279 17.5275 34.5642 18.3706 33.5181C19.2918 32.5376 20.2019 31.5079 20.9082 30.3358C21.7261 29.2184 22.2817 27.9915 22.8679 26.7783C23.3983 25.5651 23.8255 24.3245 24.1744 23.1195C24.8361 20.704 25.132 18.4091 25.2464 16.4455C25.3413 14.4791 25.2855 12.8442 25.1683 11.6611C25.1266 11.1689 25.067 10.6784 24.9896 10.1904Z" fill="#0F3963"/>
</svg>
